<?xml version="1.0"?>
<svg version="1.1" xmlns="http://www.w3.org/2000/svg" width="400" height="200" style="border: dashed 2px #aaa"><path fill="#3e3f47" d="M15.8681640625,94.7021484375q-0.0341796875-0.4169921875,0.0546875-0.724609375t0.35546875-0.505859375t0.8544921875-0.1982421875l2.201171875,0q0.451171875,0,1.1826171875,0.0478515625t1.572265625,0.1435546875t1.6748046875,0.2939453125t1.5244140625,0.4921875t1.12109375,0.724609375t0.4306640625,1.0185546875q0,0.833984375-0.4853515625,1.5654296875t-1.216796875,1.3193359375t-1.544921875,1.0458984375t-1.4560546875,0.8271484375q2.54296875,0.560546875,3.978515625,2.32421875t1.435546875,4.40234375q0,1.39453125-0.533203125,2.7548828125t-1.4560546875,2.4541015625t-2.1875,1.763671875t-2.7138671875,0.669921875q-0.19140625,0-0.4306640625-0.041015625t-0.4375-0.1298828125t-0.341796875-0.2529296875t-0.1435546875-0.423828125q0-1.203125,1.298828125-1.203125q0.21875,0,0.5126953125,0.0615234375t0.4580078125,0.2529296875q0.751953125-0.314453125,1.3740234375-0.998046875t1.052734375-1.5244140625t0.669921875-1.763671875t0.2392578125-1.6748046875q0-0.90234375-0.2666015625-1.8388671875t-0.7724609375-1.736328125t-1.244140625-1.3466796875t-1.6953125-0.68359375q-0.24609375-0.02734375-0.5400390625-0.041015625l-0.587890625-0.02734375t-0.57421875-0.08203125t-0.4853515625-0.21875q0.109375,2.26953125,0.2802734375,4.525390625t0.4580078125,4.525390625q0.109375,0.109375,0.150390625,0.3212890625t0.068359375,0.451171875t0.02734375,0.4580078125l0,0.369140625q0,0.24609375-0.1640625,0.4033203125t-0.3896484375,0.2529296875t-0.478515625,0.123046875t-0.4443359375,0.02734375q-0.615234375,0-0.943359375-0.1640625t-0.46484375-0.478515625t-0.177734375-0.7177734375t-0.068359375-0.8818359375q-0.369140625-3.814453125-0.533203125-7.546875t-0.1640625-7.546875q0-0.451171875-0.0341796875-0.8681640625z M18.390625,94.12109375q0,1.681640625,0.109375,3.3701171875t0.19140625,3.3701171875q0.615234375-0.369140625,1.61328125-0.8681640625t1.9345703125-1.1005859375t1.6064453125-1.326171875t0.669921875-1.572265625q0-0.669921875-0.79296875-1.0185546875t-1.845703125-0.51953125t-2.0576171875-0.2119140625t-1.4287109375-0.123046875z M30.33533203125,109.4609375q0-0.95703125,0.2119140625-2.255859375t0.7177734375-2.4609375t1.3330078125-1.9755859375t2.0849609375-0.8134765625q1.17578125,0,1.763671875,0.6767578125t0.587890625,1.8251953125q0,0.751953125-0.2802734375,1.6474609375t-0.7998046875,1.6953125t-1.23046875,1.3330078125t-1.5859375,0.533203125l-0.35546875-0.02734375q0,0.369140625,0.109375,0.9912109375t0.3212890625,1.2373046875t0.546875,1.080078125t0.8134765625,0.46484375q0.697265625,0,1.33984375-0.560546875t1.216796875-1.244140625t1.06640625-1.244140625t0.90234375-0.560546875q0.21875,0,0.451171875,0.068359375t0.259765625,0.3828125q0,0.19140625-0.1025390625,0.314453125t-0.1845703125,0.2734375q-0.423828125,0.724609375-0.9228515625,1.380859375t-1.1279296875,1.189453125t-1.3740234375,0.8408203125t-1.6474609375,0.3076171875q-1.17578125,0-1.955078125-0.4169921875t-1.2578125-1.12109375t-0.6904296875-1.626953125t-0.2119140625-1.9345703125z M32.78259765625,108.421875l0.3828125,0.341796875q0.2734375,0.24609375,0.546875,0.109375t0.4921875-0.4990234375t0.4033203125-0.8955078125t0.328125-1.09375t0.2119140625-1.09375t0.068359375-0.888671875l0-0.46484375t-0.041015625-0.4921875t-0.1435546875-0.3896484375t-0.3212890625-0.1982421875q-0.068359375-0.013671875-0.123046875-0.013671875q-0.46484375,0-0.79296875,0.587890625q-0.35546875,0.65625-0.57421875,1.5927734375t-0.314453125,1.9208984375t-0.123046875,1.4765625z M41.7605078125,105.072265625q0-0.560546875,0.1982421875-0.943359375t0.8408203125-0.3828125q0.24609375,0,0.615234375,0.0751953125t0.423828125,0.3759765625q0.13671875,0.806640625,0.150390625,1.75t0.095703125,1.77734375q0.314453125-0.615234375,0.806640625-1.326171875t1.12109375-1.3125t1.3671875-0.998046875t1.50390625-0.396484375q0.0546875,0,0.205078125,0.041015625t0.2802734375,0.1162109375t0.1572265625,0.1708984375t-0.150390625,0.177734375q-0.0546875,0.1640625-0.232421875,0.1982421875t-0.314453125,0.0341796875q-0.08203125,0-0.259765625-0.068359375q-1.01171875,0.533203125-1.72265625,1.44921875t-1.162109375,2.0302734375t-0.65625,2.3515625t-0.205078125,2.4130859375q0,0.587890625-0.2666015625,0.7109375t-0.8544921875,0.123046875q-0.314453125,0-0.6630859375-0.068359375t-0.4853515625-0.4375q-0.24609375-0.779296875-0.4033203125-1.791015625t-0.2392578125-2.0849609375t-0.1162109375-2.1123046875t-0.0341796875-1.873046875z M50.91615234375,100.21875q0-0.19140625,0.41015625-0.328125t0.9296875-0.2255859375t1.0048828125-0.1298828125t0.6630859375-0.068359375q0-0.369140625,0.02734375-0.7451171875t0.150390625-0.669921875t0.3896484375-0.4716796875t0.7451171875-0.177734375q0.396484375,0,0.6015625,0.095703125t0.4375,0.396484375q0.0546875,0.1640625,0.0546875,0.314453125l0,0.4580078125t-0.02734375,0.4716796875q0.505859375-0.0546875,1.0048828125-0.1298828125t1.0048828125-0.0751953125q0.369140625,0,0.505859375,0.013671875t0.2734375,0.328125q0.109375,0.314453125-0.2666015625,0.478515625t-0.90234375,0.24609375t-1.0458984375,0.123046875t-0.62890625,0.041015625q-0.1640625,2.3515625-0.3349609375,4.662109375t-0.1708984375,4.689453125q0,1.06640625,0.068359375,2.201171875t0.3828125,2.146484375q0.08203125,0.314453125,0.2734375,0.587890625t0.19140625,0.587890625q0,0.19140625-0.150390625,0.30078125t-0.3623046875,0.1845703125t-0.423828125,0.0888671875t-0.3486328125,0.013671875q-0.861328125,0-1.3125-0.642578125t-0.6494140625-1.5380859375t-0.2119140625-1.8388671875t-0.013671875-1.53125q0-1.203125,0.0478515625-2.4609375t0.1162109375-2.48828125t0.19140625-2.40625t0.287109375-2.1875q-0.478515625,0.0546875-0.9365234375,0.123046875t-0.9365234375,0.068359375q-0.109375,0-0.2939453125-0.013671875t-0.3486328125-0.068359375t-0.2802734375-0.150390625t-0.1162109375-0.2734375z M61.370625,110.390625l0-1.28515625q0-0.697265625,0.0341796875-1.9755859375t0.0888671875-2.802734375t0.150390625-3.1787109375t0.21875-3.1240234375t0.2939453125-2.6318359375t0.3896484375-1.72265625q0.13671875-0.314453125,0.451171875-0.396484375t0.615234375-0.08203125q0.478515625,0,0.8408203125,0.2119140625t0.3623046875,0.7724609375l-0.24609375,0.2734375q-0.478515625,3.158203125-0.615234375,6.34375t-0.19140625,6.37109375q0.341796875-0.533203125,0.7724609375-1.0458984375t0.95703125-0.9091796875t1.134765625-0.6357421875t1.3330078125-0.2392578125q0.9296875,0,1.5380859375,0.560546875t1.0048828125,1.4560546875t0.587890625,2.0029296875t0.2939453125,2.21484375t0.1435546875,2.0986328125t0.123046875,1.6474609375q-0.259765625,0.35546875-0.765625,0.35546875l-0.041015625,0q-0.21875,0-0.478515625-0.0546875t-0.341796875-0.2734375l0.02734375,0.02734375q-0.19140625-0.423828125-0.259765625-1.2236328125t-0.109375-1.763671875t-0.1435546875-1.9755859375t-0.3076171875-1.83203125t-0.6015625-1.353515625t-1.06640625-0.560546875l-0.08203125,0q-0.806640625,0-1.353515625,0.4921875q-0.57421875,0.51953125-0.9296875,1.3671875t-0.546875,1.88671875t-0.2939453125,2.0029296875t-0.1572265625,1.75t-0.13671875,1.1552734375q-0.08203125,0.314453125-0.4853515625,0.4169921875t-0.6904296875,0.1025390625q-0.669921875,0-1.09375-0.3828125q-0.314453125-0.751953125-0.369140625-1.873046875t-0.0546875-2.1875z M74.45009765625,108.900390625q0-0.9296875,0.2529296875-1.791015625t0.7587890625-1.5380859375t1.2646484375-1.080078125t1.7568359375-0.4033203125q0.615234375,0,1.3603515625,0.1845703125t1.4013671875,0.546875t1.09375,0.9228515625t0.4375,1.28515625q0,0.341796875-0.1162109375,0.51953125t-0.4716796875,0.177734375l-0.150390625-0.02734375q0.396484375,1.06640625,0.68359375,2.1875t0.560546875,2.2421875q0.109375,0.21875,0.1640625,0.3896484375t0.0546875,0.3349609375q0,0.21875-0.123046875,0.3623046875t-0.3212890625,0.2119140625t-0.41015625,0.095703125t-0.3759765625,0.02734375q-0.587890625,0-0.8818359375-0.205078125t-0.423828125-0.560546875t-0.1572265625-0.7998046875t-0.109375-0.8955078125q-0.1640625,0.533203125-0.4306640625,1.0390625t-0.62890625,0.9091796875t-0.8544921875,0.642578125t-1.107421875,0.2392578125q-0.90234375,0-1.517578125-0.51953125t-0.9912109375-1.2783203125t-0.546875-1.6201171875t-0.1708984375-1.599609375z M76.39150390625,108.708984375q0,0.505859375,0.068359375,1.06640625t0.2255859375,1.107421875t0.4033203125,1.0322265625t0.615234375,0.8544921875q0.669921875-0.724609375,0.9912109375-1.763671875t0.57421875-2.0029296875t0.57421875-1.654296875t0.9912109375-0.6904296875q0.423828125,0,0.7109375,0.150390625q-0.13671875-0.341796875-0.451171875-0.6630859375t-0.7041015625-0.587890625t-0.806640625-0.4375t-0.7861328125-0.1708984375q-0.109375,0-0.2529296875,0.0341796875t-0.2255859375,0.0068359375q-0.560546875,0.1640625-0.9228515625,0.5673828125t-0.587890625,0.9501953125t-0.3212890625,1.12109375t-0.095703125,1.080078125z M86.2991015625,98.93359375q0.560546875-0.21875,1.01171875-0.587890625q0.396484375-0.314453125,0.7041015625-0.7998046875t0.2802734375-1.1826171875q-0.08203125-0.08203125-0.2802734375-0.08203125t-0.4375-0.013671875t-0.478515625-0.1162109375t-0.3486328125-0.3486328125t-0.205078125-0.587890625t-0.08203125-0.7041015625t0.232421875-0.7177734375t0.724609375-0.62890625q0.478515625-0.0546875,0.9296875-0.02734375q0.396484375,0.0546875,0.7998046875,0.1845703125t0.7177734375,0.4580078125q0.21875,0.24609375,0.314453125,0.697265625t0.109375,0.984375t-0.068359375,1.107421875t-0.24609375,1.025390625q-0.0546875,0.1640625-0.3349609375,0.5126953125t-0.6767578125,0.7041015625t-0.8408203125,0.615234375t-0.8134765625,0.259765625t-0.560546875-0.109375t-0.30078125-0.24609375q-0.109375-0.1640625-0.150390625-0.396484375z M93.10318359375,105.373046875q0-0.560546875,0.328125-0.9638671875t0.7998046875-0.65625t1.0322265625-0.3759765625t1.0390625-0.123046875q0.369140625,0,0.984375,0.109375t1.203125,0.328125t1.0185546875,0.57421875t0.4306640625,0.833984375q0,0.21875-0.1640625,0.3896484375t-0.341796875,0.1708984375q-0.369140625,0-0.669921875-0.2392578125t-0.6220703125-0.505859375t-0.7041015625-0.505859375t-0.861328125-0.2392578125t-0.8681640625,0.3076171875t-0.3896484375,0.8134765625q0,0.833984375,0.587890625,1.6337890625t1.2919921875,1.681640625t1.2919921875,1.8525390625t0.587890625,2.146484375q0,0.505859375-0.2119140625,0.8544921875t-0.560546875,0.5673828125t-0.7861328125,0.3349609375t-0.84765625,0.1162109375q-0.451171875,0-1.052734375-0.2119140625t-1.134765625-0.560546875t-0.8955078125-0.8134765625t-0.3623046875-0.970703125q0-0.24609375,0.3486328125-0.314453125t0.5126953125-0.068359375q0.08203125,0,0.2529296875,0.0546875t0.3349609375,0.123046875t0.2939453125,0.150390625t0.1025390625,0.177734375q0.13671875,0.1640625,0.4169921875,0.4853515625t0.560546875,0.51953125t0.4921875,0.1435546875t0.2119140625-0.615234375q0-1.06640625-0.57421875-1.9619140625t-1.2509765625-1.75t-1.2509765625-1.6953125t-0.57421875-1.7978515625z M108.06486328125,94.982421875q0-0.95703125,0.328125-1.28515625t0.916015625-0.328125q0.1640625,0,0.3486328125,0.02734375t0.3486328125,0.08203125q0.916015625-0.177734375,1.736328125-0.177734375q1.326171875,0,2.40625,0.46484375q1.736328125,0.73828125,2.87109375,2.1875t1.66796875,3.404296875t0.533203125,4.005859375q0,1.1484375-0.1572265625,2.392578125t-0.6083984375,2.310546875q-0.396484375,0.95703125-1.09375,2.0029296875t-1.5791015625,1.982421875t-1.900390625,1.640625t-2.0576171875,0.9501953125l0,0.109375q0,0.2734375-0.1435546875,0.4443359375t-0.3486328125,0.259765625t-0.4716796875,0.1162109375t-0.4990234375,0.02734375q-0.13671875,0-0.3896484375-0.02734375t-0.4921875-0.1025390625t-0.4033203125-0.1982421875t-0.1640625-0.341796875q0-2.48828125-0.1298828125-4.9833984375t-0.2939453125-4.990234375t-0.2939453125-4.9833984375t-0.1298828125-4.990234375z M110.64884765625,94.28515625q0.13671875,1.3125,0.177734375,2.6181640625t0.123046875,2.6181640625q0.21875,3.390625,0.505859375,6.7470703125t0.341796875,6.7470703125q1.3125-0.861328125,2.2490234375-1.96875t1.5380859375-2.40625t0.8818359375-2.7275390625t0.2802734375-2.9462890625q0-1.09375-0.19140625-2.40625t-0.65625-2.529296875t-1.2509765625-2.201171875t-1.9619140625-1.408203125q-0.24609375-0.08203125-0.5947265625-0.13671875t-1.1142578125-0.0546875q-0.08203125,0-0.1640625,0.02734375t-0.1640625,0.02734375z M122.0056640625,109.4609375q0-0.95703125,0.2119140625-2.255859375t0.7177734375-2.4609375t1.3330078125-1.9755859375t2.0849609375-0.8134765625q1.17578125,0,1.763671875,0.6767578125t0.587890625,1.8251953125q0,0.751953125-0.2802734375,1.6474609375t-0.7998046875,1.6953125t-1.23046875,1.3330078125t-1.5859375,0.533203125l-0.35546875-0.02734375q0,0.369140625,0.109375,0.9912109375t0.3212890625,1.2373046875t0.546875,1.080078125t0.8134765625,0.46484375q0.697265625,0,1.33984375-0.560546875t1.216796875-1.244140625t1.06640625-1.244140625t0.90234375-0.560546875q0.21875,0,0.451171875,0.068359375t0.259765625,0.3828125q0,0.19140625-0.1025390625,0.314453125t-0.1845703125,0.2734375q-0.423828125,0.724609375-0.9228515625,1.380859375t-1.1279296875,1.189453125t-1.3740234375,0.8408203125t-1.6474609375,0.3076171875q-1.17578125,0-1.955078125-0.4169921875t-1.2578125-1.12109375t-0.6904296875-1.626953125t-0.2119140625-1.9345703125z M124.4529296875,108.421875l0.3828125,0.341796875q0.2734375,0.24609375,0.546875,0.109375t0.4921875-0.4990234375t0.4033203125-0.8955078125t0.328125-1.09375t0.2119140625-1.09375t0.068359375-0.888671875l0-0.46484375t-0.041015625-0.4921875t-0.1435546875-0.3896484375t-0.3212890625-0.1982421875q-0.068359375-0.013671875-0.123046875-0.013671875q-0.46484375,0-0.79296875,0.587890625q-0.35546875,0.65625-0.57421875,1.5927734375t-0.314453125,1.9208984375t-0.123046875,1.4765625z M133.43083984375,113.75390625q0-0.396484375,0.0341796875-0.833984375t0.0615234375-0.8203125l0.08203125-2.05078125q0.13671875-2.4609375,0.3349609375-4.83984375t0.3349609375-4.8125q0.08203125-1.33984375,0.123046875-2.6318359375t0.123046875-2.6318359375q-0.0546875-0.109375-0.0546875-0.150390625q0-0.19140625,0.1435546875-0.30078125t0.3349609375-0.1845703125t0.4033203125-0.1025390625t0.3212890625-0.02734375l0.314453125,0q0.423828125,0.0546875,0.615234375,0.2666015625t0.24609375,0.505859375t0.02734375,0.62890625t-0.02734375,0.6220703125q0,1.982421875-0.095703125,4.0400390625t-0.21875,4.12890625t-0.2255859375,4.142578125t-0.1025390625,4.0947265625l0,0.95703125q0,0.642578125-0.3623046875,0.84765625t-1.0048828125,0.205078125q-0.560546875,0-0.984375-0.24609375t-0.423828125-0.806640625z M139.141171875,107.697265625q0-0.2734375,0.0615234375-0.724609375t0.1435546875-0.8955078125t0.19140625-0.8271484375t0.259765625-0.4921875q0.109375-0.109375,0.3759765625-0.21875t0.560546875-0.1572265625t0.546875,0.041015625t0.3076171875,0.3623046875q-0.19140625,0.24609375-0.3486328125,0.8408203125t-0.2392578125,1.3193359375q-0.068359375,0.615234375-0.068359375,1.271484375l0,0.232421875q0.013671875,0.765625,0.13671875,1.408203125t0.3759765625,1.0595703125t0.7041015625,0.4169921875q0.95703125,0,1.75-0.8818359375t1.408203125-2.1533203125t1.080078125-2.7001953125t0.79296875-2.4951171875q0.08203125-0.314453125,0.3896484375-0.423828125t0.6630859375-0.0751953125t0.6357421875,0.1708984375t0.3349609375,0.328125q-0.2734375,2.296875-0.4306640625,4.59375t-0.1572265625,4.62109375q0,0.451171875,0.041015625,0.8271484375t-0.041015625,0.642578125t-0.3623046875,0.423828125t-0.8955078125,0.1572265625q-0.13671875,0-0.3486328125-0.02734375t-0.4375-0.0888671875t-0.3828125-0.1845703125t-0.1572265625-0.287109375q0-1.01171875,0.0751953125-2.078125t0.2119140625-2.064453125q-0.369140625,0.533203125-0.8134765625,1.0595703125t-0.9775390625,0.9501953125t-1.1484375,0.6767578125t-1.326171875,0.2529296875q-1.01171875,0-1.5927734375-0.478515625t-0.875-1.1962890625t-0.369140625-1.5654296875t-0.0751953125-1.640625z M151.30462890625,113.193359375q0-0.08203125,0.1982421875-0.4375t0.505859375-0.8544921875t0.669921875-1.0869140625t0.724609375-1.162109375t0.6767578125-1.0390625t0.478515625-0.7109375q-0.1640625-0.314453125-0.560546875-0.861328125t-0.8134765625-1.107421875t-0.724609375-1.080078125t-0.3076171875-0.765625q0-0.396484375,0.3896484375-0.51953125t0.7587890625-0.123046875q0.396484375,0,0.560546875,0.068359375t0.4375,0.3828125q-0.02734375,0.08203125,0.1982421875,0.4306640625t0.533203125,0.73828125t0.587890625,0.7109375t0.3349609375,0.4169921875l0.6015625-0.6015625t0.7451171875-0.6904296875t0.8134765625-0.560546875t0.779296875-0.2255859375q0.13671875,0,0.4169921875,0.068359375t0.2802734375,0.2734375q-0.396484375,0.423828125-0.724609375,0.697265625t-0.669921875,0.5537109375t-0.68359375,0.62890625t-0.79296875,0.8818359375q0.19140625,0.314453125,0.724609375,1.0390625t1.080078125,1.5380859375t0.9638671875,1.53125t0.4169921875,0.9912109375q0,0.1640625-0.1708984375,0.2666015625t-0.3896484375,0.1708984375t-0.4443359375,0.095703125t-0.3349609375,0.02734375q-0.314453125,0-0.7177734375-0.08203125t-0.5810546875-0.369140625q-0.533203125-0.779296875-0.9228515625-1.6337890625t-0.9501953125-1.6337890625q-0.109375,0.19140625-0.4443359375,0.90234375t-0.7998046875,1.4970703125t-0.9775390625,1.4013671875t-0.9365234375,0.615234375l-0.02734375,0q-0.19140625,0-0.546875-0.068359375t-0.35546875-0.314453125z M162.0051953125,109.4609375q0-0.95703125,0.2119140625-2.255859375t0.7177734375-2.4609375t1.3330078125-1.9755859375t2.0849609375-0.8134765625q1.17578125,0,1.763671875,0.6767578125t0.587890625,1.8251953125q0,0.751953125-0.2802734375,1.6474609375t-0.7998046875,1.6953125t-1.23046875,1.3330078125t-1.5859375,0.533203125l-0.35546875-0.02734375q0,0.369140625,0.109375,0.9912109375t0.3212890625,1.2373046875t0.546875,1.080078125t0.8134765625,0.46484375q0.697265625,0,1.33984375-0.560546875t1.216796875-1.244140625t1.06640625-1.244140625t0.90234375-0.560546875q0.21875,0,0.451171875,0.068359375t0.259765625,0.3828125q0,0.19140625-0.1025390625,0.314453125t-0.1845703125,0.2734375q-0.423828125,0.724609375-0.9228515625,1.380859375t-1.1279296875,1.189453125t-1.3740234375,0.8408203125t-1.6474609375,0.3076171875q-1.17578125,0-1.955078125-0.4169921875t-1.2578125-1.12109375t-0.6904296875-1.626953125t-0.2119140625-1.9345703125z M164.4524609375,108.421875l0.3828125,0.341796875q0.2734375,0.24609375,0.546875,0.109375t0.4921875-0.4990234375t0.4033203125-0.8955078125t0.328125-1.09375t0.2119140625-1.09375t0.068359375-0.888671875l0-0.46484375t-0.041015625-0.4921875t-0.1435546875-0.3896484375t-0.3212890625-0.1982421875q-0.068359375-0.013671875-0.123046875-0.013671875q-0.46484375,0-0.79296875,0.587890625q-0.35546875,0.65625-0.57421875,1.5927734375t-0.314453125,1.9208984375t-0.123046875,1.4765625z M178.757890625,109.638671875q0-2.966796875,0.2666015625-5.9404296875t1.1142578125-5.8583984375q0.24609375-0.861328125,0.642578125-1.7021484375t0.970703125-1.4970703125t1.3671875-1.06640625t1.88671875-0.41015625l0.287109375,0.02734375q1.17578125,0.1640625,1.736328125,0.9501953125t0.560546875,1.9619140625q0,0.314453125-0.0751953125,0.7861328125t-0.2392578125,0.9091796875t-0.4443359375,0.7451171875t-0.7041015625,0.3076171875q-0.19140625-0.02734375-0.3486328125-0.068359375t-0.2939453125-0.177734375q0.21875-0.478515625,0.3896484375-0.998046875t0.1708984375-1.189453125q0-0.24609375-0.041015625-0.62890625t-0.1572265625-0.7587890625t-0.3076171875-0.65625t-0.533203125-0.2802734375q-0.861328125,0-1.44921875,0.9638671875t-0.984375,2.4609375t-0.587890625,3.30859375t-0.2939453125,3.5t-0.1162109375,3.048828125t-0.013671875,1.9208984375q0,0.65625-0.013671875,1.44921875l0,0.177734375q0.013671875,0.697265625,0.095703125,1.326171875q0.109375,0.7109375,0.423828125,1.23046875t0.984375,0.6015625q0.205078125,0.02734375,0.396484375,0.02734375q0.79296875,0,1.435546875-0.451171875q0.79296875-0.560546875,1.408203125-1.4560546875t1.09375-1.96875t0.8818359375-2.0302734375t0.7861328125-1.5859375t0.79296875-0.62890625q0.13671875,0,0.41015625,0.0546875t0.2734375,0.259765625q0,0.0546875-0.02734375,0.150390625t-0.068359375,0.150390625q-0.369140625,1.44921875-0.9365234375,3.0078125t-1.44921875,2.8369140625t-2.16015625,2.0849609375t-3.0693359375,0.806640625q-1.28515625,0-2.0849609375-0.4853515625t-1.23046875-1.298828125t-0.587890625-1.8388671875t-0.1572265625-2.078125z M193.32759765625,110.390625l0-1.28515625q0-0.697265625,0.0341796875-1.9755859375t0.0888671875-2.802734375t0.150390625-3.1787109375t0.21875-3.1240234375t0.2939453125-2.6318359375t0.3896484375-1.72265625q0.13671875-0.314453125,0.451171875-0.396484375t0.615234375-0.08203125q0.478515625,0,0.8408203125,0.2119140625t0.3623046875,0.7724609375l-0.24609375,0.2734375q-0.478515625,3.158203125-0.615234375,6.34375t-0.19140625,6.37109375q0.341796875-0.533203125,0.7724609375-1.0458984375t0.95703125-0.9091796875t1.134765625-0.6357421875t1.3330078125-0.2392578125q0.9296875,0,1.5380859375,0.560546875t1.0048828125,1.4560546875t0.587890625,2.0029296875t0.2939453125,2.21484375t0.1435546875,2.0986328125t0.123046875,1.6474609375q-0.259765625,0.35546875-0.765625,0.35546875l-0.041015625,0q-0.21875,0-0.478515625-0.0546875t-0.341796875-0.2734375l0.02734375,0.02734375q-0.19140625-0.423828125-0.259765625-1.2236328125t-0.109375-1.763671875t-0.1435546875-1.9755859375t-0.3076171875-1.83203125t-0.6015625-1.353515625t-1.06640625-0.560546875l-0.08203125,0q-0.806640625,0-1.353515625,0.4921875q-0.57421875,0.51953125-0.9296875,1.3671875t-0.546875,1.88671875t-0.2939453125,2.0029296875t-0.1572265625,1.75t-0.13671875,1.1552734375q-0.08203125,0.314453125-0.4853515625,0.4169921875t-0.6904296875,0.1025390625q-0.669921875,0-1.09375-0.3828125q-0.314453125-0.751953125-0.369140625-1.873046875t-0.0546875-2.1875z M206.1336328125,109.16015625q0-0.779296875,0.1982421875-1.6064453125t0.62890625-1.490234375t1.0869140625-1.080078125t1.5859375-0.4169921875q0.697265625,0,1.4697265625,0.2392578125t1.4150390625,0.68359375t1.0458984375,1.0869140625t0.4033203125,1.435546875q0,0.95703125-0.3486328125,1.818359375t-0.9775390625,1.5380859375t-1.4697265625,1.06640625t-1.8251953125,0.3896484375q-0.806640625,0-1.408203125-0.2939453125t-1.0048828125-0.7861328125t-0.6015625-1.162109375t-0.1982421875-1.421875z M208.1433984375,109.1328125q0,0.24609375,0.0751953125,0.724609375t0.2255859375,0.9365234375t0.3896484375,0.79296875t0.5810546875,0.3076171875q0.724609375-0.08203125,1.1962890625-0.4716796875t0.765625-0.9501953125t0.41015625-1.216796875t0.1162109375-1.244140625q0-0.751953125-0.2939453125-1.2578125t-0.9638671875-0.8203125q0,0.02734375,0.02734375,0.02734375t0.02734375-0.02734375l-0.341796875-0.08203125q-0.13671875-0.0546875-0.3349609375-0.123046875t-0.3896484375-0.30078125q-0.533203125,0.19140625-0.8271484375,0.4921875t-0.4443359375,0.7314453125t-0.1845703125,1.0322265625t-0.0341796875,1.44921875z M216.49240234375,108.626953125q0-0.984375,0.2529296875-1.9755859375t0.7861328125-1.77734375t1.3603515625-1.2783203125t1.9482421875-0.4921875q0.478515625,0,1.052734375,0.1162109375t1.0595703125,0.369140625t0.8203125,0.65625t0.3349609375,0.9912109375q0,0.369140625-0.19140625,0.4921875t-0.505859375,0.123046875l-0.095703125-0.13671875t-0.2666015625-0.3486328125t-0.3623046875-0.451171875t-0.369140625-0.4033203125q-0.560546875-0.560546875-1.052734375-0.6015625l-0.109375,0q-0.41015625,0-0.765625,0.24609375q-0.396484375,0.30078125-0.7041015625,0.84765625t-0.5126953125,1.162109375t-0.3212890625,1.244140625t-0.1162109375,1.0390625q0,0.560546875,0.1298828125,1.2783203125t0.4375,1.3603515625t0.779296875,1.080078125t1.2099609375,0.4375q0.669921875,0,1.216796875-0.328125t1.0458984375-0.7314453125t0.9775390625-0.724609375t0.984375-0.3212890625q0.21875,0,0.4443359375,0.0546875t0.2255859375,0.287109375l0,0.08203125q-0.24609375,0.642578125-0.833984375,1.134765625t-1.3193359375,0.8544921875t-1.517578125,0.5400390625t-1.4013671875,0.177734375q-1.1484375,0-2.0166015625-0.3759765625t-1.4423828125-1.0322265625t-0.8681640625-1.5791015625t-0.2939453125-2.0166015625z M228.15,109.16015625q0-0.779296875,0.1982421875-1.6064453125t0.62890625-1.490234375t1.0869140625-1.080078125t1.5859375-0.4169921875q0.697265625,0,1.4697265625,0.2392578125t1.4150390625,0.68359375t1.0458984375,1.0869140625t0.4033203125,1.435546875q0,0.95703125-0.3486328125,1.818359375t-0.9775390625,1.5380859375t-1.4697265625,1.06640625t-1.8251953125,0.3896484375q-0.806640625,0-1.408203125-0.2939453125t-1.0048828125-0.7861328125t-0.6015625-1.162109375t-0.1982421875-1.421875z M230.159765625,109.1328125q0,0.24609375,0.0751953125,0.724609375t0.2255859375,0.9365234375t0.3896484375,0.79296875t0.5810546875,0.3076171875q0.724609375-0.08203125,1.1962890625-0.4716796875t0.765625-0.9501953125t0.41015625-1.216796875t0.1162109375-1.244140625q0-0.751953125-0.2939453125-1.2578125t-0.9638671875-0.8203125q0,0.02734375,0.02734375,0.02734375t0.02734375-0.02734375l-0.341796875-0.08203125q-0.13671875-0.0546875-0.3349609375-0.123046875t-0.3896484375-0.30078125q-0.533203125,0.19140625-0.8271484375,0.4921875t-0.4443359375,0.7314453125t-0.1845703125,1.0322265625t-0.0341796875,1.44921875z M238.50876953125,113.75390625q0-0.396484375,0.0341796875-0.833984375t0.0615234375-0.8203125l0.08203125-2.05078125q0.13671875-2.4609375,0.3349609375-4.83984375t0.3349609375-4.8125q0.08203125-1.33984375,0.123046875-2.6318359375t0.123046875-2.6318359375q-0.0546875-0.109375-0.0546875-0.150390625q0-0.19140625,0.1435546875-0.30078125t0.3349609375-0.1845703125t0.4033203125-0.1025390625t0.3212890625-0.02734375l0.314453125,0q0.423828125,0.0546875,0.615234375,0.2666015625t0.24609375,0.505859375t0.02734375,0.62890625t-0.02734375,0.6220703125q0,1.982421875-0.095703125,4.0400390625t-0.21875,4.12890625t-0.2255859375,4.142578125t-0.1025390625,4.0947265625l0,0.95703125q0,0.642578125-0.3623046875,0.84765625t-1.0048828125,0.205078125q-0.560546875,0-0.984375-0.24609375t-0.423828125-0.806640625z M244.7796484375,108.900390625q0-0.9296875,0.2529296875-1.791015625t0.7587890625-1.5380859375t1.2646484375-1.080078125t1.7568359375-0.4033203125q0.615234375,0,1.3603515625,0.1845703125t1.4013671875,0.546875t1.09375,0.9228515625t0.4375,1.28515625q0,0.341796875-0.1162109375,0.51953125t-0.4716796875,0.177734375l-0.150390625-0.02734375q0.396484375,1.06640625,0.68359375,2.1875t0.560546875,2.2421875q0.109375,0.21875,0.1640625,0.3896484375t0.0546875,0.3349609375q0,0.21875-0.123046875,0.3623046875t-0.3212890625,0.2119140625t-0.41015625,0.095703125t-0.3759765625,0.02734375q-0.587890625,0-0.8818359375-0.205078125t-0.423828125-0.560546875t-0.1572265625-0.7998046875t-0.109375-0.8955078125q-0.1640625,0.533203125-0.4306640625,1.0390625t-0.62890625,0.9091796875t-0.8544921875,0.642578125t-1.107421875,0.2392578125q-0.90234375,0-1.517578125-0.51953125t-0.9912109375-1.2783203125t-0.546875-1.6201171875t-0.1708984375-1.599609375z M246.7210546875,108.708984375q0,0.505859375,0.068359375,1.06640625t0.2255859375,1.107421875t0.4033203125,1.0322265625t0.615234375,0.8544921875q0.669921875-0.724609375,0.9912109375-1.763671875t0.57421875-2.0029296875t0.57421875-1.654296875t0.9912109375-0.6904296875q0.423828125,0,0.7109375,0.150390625q-0.13671875-0.341796875-0.451171875-0.6630859375t-0.7041015625-0.587890625t-0.806640625-0.4375t-0.7861328125-0.1708984375q-0.109375,0-0.2529296875,0.0341796875t-0.2255859375,0.0068359375q-0.560546875,0.1640625-0.9228515625,0.5673828125t-0.587890625,0.9501953125t-0.3212890625,1.12109375t-0.095703125,1.080078125z M256.06810546875,100.21875q0-0.19140625,0.41015625-0.328125t0.9296875-0.2255859375t1.0048828125-0.1298828125t0.6630859375-0.068359375q0-0.369140625,0.02734375-0.7451171875t0.150390625-0.669921875t0.3896484375-0.4716796875t0.7451171875-0.177734375q0.396484375,0,0.6015625,0.095703125t0.4375,0.396484375q0.0546875,0.1640625,0.0546875,0.314453125l0,0.4580078125t-0.02734375,0.4716796875q0.505859375-0.0546875,1.0048828125-0.1298828125t1.0048828125-0.0751953125q0.369140625,0,0.505859375,0.013671875t0.2734375,0.328125q0.109375,0.314453125-0.2666015625,0.478515625t-0.90234375,0.24609375t-1.0458984375,0.123046875t-0.62890625,0.041015625q-0.1640625,2.3515625-0.3349609375,4.662109375t-0.1708984375,4.689453125q0,1.06640625,0.068359375,2.201171875t0.3828125,2.146484375q0.08203125,0.314453125,0.2734375,0.587890625t0.19140625,0.587890625q0,0.19140625-0.150390625,0.30078125t-0.3623046875,0.1845703125t-0.423828125,0.0888671875t-0.3486328125,0.013671875q-0.861328125,0-1.3125-0.642578125t-0.6494140625-1.5380859375t-0.2119140625-1.8388671875t-0.013671875-1.53125q0-1.203125,0.0478515625-2.4609375t0.1162109375-2.48828125t0.19140625-2.40625t0.287109375-2.1875q-0.478515625,0.0546875-0.9365234375,0.123046875t-0.9365234375,0.068359375q-0.109375,0-0.2939453125-0.013671875t-0.3486328125-0.068359375t-0.2802734375-0.150390625t-0.1162109375-0.2734375z M266.522578125,109.4609375q0-0.95703125,0.2119140625-2.255859375t0.7177734375-2.4609375t1.3330078125-1.9755859375t2.0849609375-0.8134765625q1.17578125,0,1.763671875,0.6767578125t0.587890625,1.8251953125q0,0.751953125-0.2802734375,1.6474609375t-0.7998046875,1.6953125t-1.23046875,1.3330078125t-1.5859375,0.533203125l-0.35546875-0.02734375q0,0.369140625,0.109375,0.9912109375t0.3212890625,1.2373046875t0.546875,1.080078125t0.8134765625,0.46484375q0.697265625,0,1.33984375-0.560546875t1.216796875-1.244140625t1.06640625-1.244140625t0.90234375-0.560546875q0.21875,0,0.451171875,0.068359375t0.259765625,0.3828125q0,0.19140625-0.1025390625,0.314453125t-0.1845703125,0.2734375q-0.423828125,0.724609375-0.9228515625,1.380859375t-1.1279296875,1.189453125t-1.3740234375,0.8408203125t-1.6474609375,0.3076171875q-1.17578125,0-1.955078125-0.4169921875t-1.2578125-1.12109375t-0.6904296875-1.626953125t-0.2119140625-1.9345703125z M268.96984375,108.421875l0.3828125,0.341796875q0.2734375,0.24609375,0.546875,0.109375t0.4921875-0.4990234375t0.4033203125-0.8955078125t0.328125-1.09375t0.2119140625-1.09375t0.068359375-0.888671875l0-0.46484375t-0.041015625-0.4921875t-0.1435546875-0.3896484375t-0.3212890625-0.1982421875q-0.068359375-0.013671875-0.123046875-0.013671875q-0.46484375,0-0.79296875,0.587890625q-0.35546875,0.65625-0.57421875,1.5927734375t-0.314453125,1.9208984375t-0.123046875,1.4765625z M277.94775390625,105.373046875q0-0.560546875,0.328125-0.9638671875t0.7998046875-0.65625t1.0322265625-0.3759765625t1.0390625-0.123046875q0.369140625,0,0.984375,0.109375t1.203125,0.328125t1.0185546875,0.57421875t0.4306640625,0.833984375q0,0.21875-0.1640625,0.3896484375t-0.341796875,0.1708984375q-0.369140625,0-0.669921875-0.2392578125t-0.6220703125-0.505859375t-0.7041015625-0.505859375t-0.861328125-0.2392578125t-0.8681640625,0.3076171875t-0.3896484375,0.8134765625q0,0.833984375,0.587890625,1.6337890625t1.2919921875,1.681640625t1.2919921875,1.8525390625t0.587890625,2.146484375q0,0.505859375-0.2119140625,0.8544921875t-0.560546875,0.5673828125t-0.7861328125,0.3349609375t-0.84765625,0.1162109375q-0.451171875,0-1.052734375-0.2119140625t-1.134765625-0.560546875t-0.8955078125-0.8134765625t-0.3623046875-0.970703125q0-0.24609375,0.3486328125-0.314453125t0.5126953125-0.068359375q0.08203125,0,0.2529296875,0.0546875t0.3349609375,0.123046875t0.2939453125,0.150390625t0.1025390625,0.177734375q0.13671875,0.1640625,0.4169921875,0.4853515625t0.560546875,0.51953125t0.4921875,0.1435546875t0.2119140625-0.615234375q0-1.06640625-0.57421875-1.9619140625t-1.2509765625-1.75t-1.2509765625-1.6953125t-0.57421875-1.7978515625z M292.93677734375,111.703125q0.08203125-2.21484375,0.1435546875-4.5390625t0.1162109375-4.5869140625t0.08203125-4.3955078125t0.02734375-3.978515625q0.02734375-0.369140625,0.642578125-0.587890625t1.4697265625-0.3212890625t1.8046875-0.1298828125t1.6884765625-0.02734375q0.1640625,0,0.68359375-0.013671875l0.259765625,0q0.396484375,0,0.833984375,0.02734375q0.57421875,0.041015625,1.0048828125,0.177734375t0.4306640625,0.396484375q0,0.19140625-0.150390625,0.3076171875t-0.3486328125,0.1708984375t-0.41015625,0.068359375t-0.2939453125,0.013671875q-1.28515625,0-2.54296875-0.041015625q-0.341796875-0.013671875-0.697265625-0.013671875q-0.9296875,0-1.88671875,0.08203125q0.0546875,0.1640625,0.0888671875,0.9912109375t0.0341796875,1.8662109375t-0.013671875,2.0302734375t0,1.5244140625l0,3.5546875q0.423828125-0.02734375,0.833984375-0.02734375l0.8203125,0l0.546875-0.02734375q0.2734375-0.013671875,0.57421875-0.013671875q0.314453125,0,0.642578125,0.013671875q0.65625,0.02734375,1.1962890625,0.1572265625t0.5400390625,0.4580078125q0,0.24609375-0.205078125,0.3623046875t-0.4580078125,0.1708984375t-0.478515625,0.0546875l-0.2529296875,0q-0.779296875,0-1.6201171875-0.0546875t-1.5654296875-0.0546875q-0.13671875,0.0546875-0.2939453125,0.041015625t-0.2802734375-0.013671875q0,2.05078125-0.041015625,4.0810546875t-0.095703125,4.0400390625q0,0.396484375-0.4990234375,0.51953125t-0.9501953125,0.123046875q-0.505859375,0-0.7998046875-0.123046875t-0.4169921875-0.4033203125t-0.150390625-0.7451171875q-0.013671875-0.259765625-0.02734375-0.57421875q0-0.259765625,0.013671875-0.560546875z M304.088515625,108.900390625q0-0.9296875,0.2529296875-1.791015625t0.7587890625-1.5380859375t1.2646484375-1.080078125t1.7568359375-0.4033203125q0.615234375,0,1.3603515625,0.1845703125t1.4013671875,0.546875t1.09375,0.9228515625t0.4375,1.28515625q0,0.341796875-0.1162109375,0.51953125t-0.4716796875,0.177734375l-0.150390625-0.02734375q0.396484375,1.06640625,0.68359375,2.1875t0.560546875,2.2421875q0.109375,0.21875,0.1640625,0.3896484375t0.0546875,0.3349609375q0,0.21875-0.123046875,0.3623046875t-0.3212890625,0.2119140625t-0.41015625,0.095703125t-0.3759765625,0.02734375q-0.587890625,0-0.8818359375-0.205078125t-0.423828125-0.560546875t-0.1572265625-0.7998046875t-0.109375-0.8955078125q-0.1640625,0.533203125-0.4306640625,1.0390625t-0.62890625,0.9091796875t-0.8544921875,0.642578125t-1.107421875,0.2392578125q-0.90234375,0-1.517578125-0.51953125t-0.9912109375-1.2783203125t-0.546875-1.6201171875t-0.1708984375-1.599609375z M306.029921875,108.708984375q0,0.505859375,0.068359375,1.06640625t0.2255859375,1.107421875t0.4033203125,1.0322265625t0.615234375,0.8544921875q0.669921875-0.724609375,0.9912109375-1.763671875t0.57421875-2.0029296875t0.57421875-1.654296875t0.9912109375-0.6904296875q0.423828125,0,0.7109375,0.150390625q-0.13671875-0.341796875-0.451171875-0.6630859375t-0.7041015625-0.587890625t-0.806640625-0.4375t-0.7861328125-0.1708984375q-0.109375,0-0.2529296875,0.0341796875t-0.2255859375,0.0068359375q-0.560546875,0.1640625-0.9228515625,0.5673828125t-0.587890625,0.9501953125t-0.3212890625,1.12109375t-0.095703125,1.080078125z M315.93751953125,108.626953125q0-0.984375,0.2529296875-1.9755859375t0.7861328125-1.77734375t1.3603515625-1.2783203125t1.9482421875-0.4921875q0.478515625,0,1.052734375,0.1162109375t1.0595703125,0.369140625t0.8203125,0.65625t0.3349609375,0.9912109375q0,0.369140625-0.19140625,0.4921875t-0.505859375,0.123046875l-0.095703125-0.13671875t-0.2666015625-0.3486328125t-0.3623046875-0.451171875t-0.369140625-0.4033203125q-0.560546875-0.560546875-1.052734375-0.6015625l-0.109375,0q-0.41015625,0-0.765625,0.24609375q-0.396484375,0.30078125-0.7041015625,0.84765625t-0.5126953125,1.162109375t-0.3212890625,1.244140625t-0.1162109375,1.0390625q0,0.560546875,0.1298828125,1.2783203125t0.4375,1.3603515625t0.779296875,1.080078125t1.2099609375,0.4375q0.669921875,0,1.216796875-0.328125t1.0458984375-0.7314453125t0.9775390625-0.724609375t0.984375-0.3212890625q0.21875,0,0.4443359375,0.0546875t0.2255859375,0.287109375l0,0.08203125q-0.24609375,0.642578125-0.833984375,1.134765625t-1.3193359375,0.8544921875t-1.517578125,0.5400390625t-1.4013671875,0.177734375q-1.1484375,0-2.0166015625-0.3759765625t-1.4423828125-1.0322265625t-0.8681640625-1.5791015625t-0.2939453125-2.0166015625z M327.3080078125,100.21875q0-0.19140625,0.41015625-0.328125t0.9296875-0.2255859375t1.0048828125-0.1298828125t0.6630859375-0.068359375q0-0.369140625,0.02734375-0.7451171875t0.150390625-0.669921875t0.3896484375-0.4716796875t0.7451171875-0.177734375q0.396484375,0,0.6015625,0.095703125t0.4375,0.396484375q0.0546875,0.1640625,0.0546875,0.314453125l0,0.4580078125t-0.02734375,0.4716796875q0.505859375-0.0546875,1.0048828125-0.1298828125t1.0048828125-0.0751953125q0.369140625,0,0.505859375,0.013671875t0.2734375,0.328125q0.109375,0.314453125-0.2666015625,0.478515625t-0.90234375,0.24609375t-1.0458984375,0.123046875t-0.62890625,0.041015625q-0.1640625,2.3515625-0.3349609375,4.662109375t-0.1708984375,4.689453125q0,1.06640625,0.068359375,2.201171875t0.3828125,2.146484375q0.08203125,0.314453125,0.2734375,0.587890625t0.19140625,0.587890625q0,0.19140625-0.150390625,0.30078125t-0.3623046875,0.1845703125t-0.423828125,0.0888671875t-0.3486328125,0.013671875q-0.861328125,0-1.3125-0.642578125t-0.6494140625-1.5380859375t-0.2119140625-1.8388671875t-0.013671875-1.53125q0-1.203125,0.0478515625-2.4609375t0.1162109375-2.48828125t0.19140625-2.40625t0.287109375-2.1875q-0.478515625,0.0546875-0.9365234375,0.123046875t-0.9365234375,0.068359375q-0.109375,0-0.2939453125-0.013671875t-0.3486328125-0.068359375t-0.2802734375-0.150390625t-0.1162109375-0.2734375z M337.48904296875,109.16015625q0-0.779296875,0.1982421875-1.6064453125t0.62890625-1.490234375t1.0869140625-1.080078125t1.5859375-0.4169921875q0.697265625,0,1.4697265625,0.2392578125t1.4150390625,0.68359375t1.0458984375,1.0869140625t0.4033203125,1.435546875q0,0.95703125-0.3486328125,1.818359375t-0.9775390625,1.5380859375t-1.4697265625,1.06640625t-1.8251953125,0.3896484375q-0.806640625,0-1.408203125-0.2939453125t-1.0048828125-0.7861328125t-0.6015625-1.162109375t-0.1982421875-1.421875z M339.49880859375,109.1328125q0,0.24609375,0.0751953125,0.724609375t0.2255859375,0.9365234375t0.3896484375,0.79296875t0.5810546875,0.3076171875q0.724609375-0.08203125,1.1962890625-0.4716796875t0.765625-0.9501953125t0.41015625-1.216796875t0.1162109375-1.244140625q0-0.751953125-0.2939453125-1.2578125t-0.9638671875-0.8203125q0,0.02734375,0.02734375,0.02734375t0.02734375-0.02734375l-0.341796875-0.08203125q-0.13671875-0.0546875-0.3349609375-0.123046875t-0.3896484375-0.30078125q-0.533203125,0.19140625-0.8271484375,0.4921875t-0.4443359375,0.7314453125t-0.1845703125,1.0322265625t-0.0341796875,1.44921875z M347.8478125,105.072265625q0-0.560546875,0.1982421875-0.943359375t0.8408203125-0.3828125q0.24609375,0,0.615234375,0.0751953125t0.423828125,0.3759765625q0.13671875,0.806640625,0.150390625,1.75t0.095703125,1.77734375q0.314453125-0.615234375,0.806640625-1.326171875t1.12109375-1.3125t1.3671875-0.998046875t1.50390625-0.396484375q0.0546875,0,0.205078125,0.041015625t0.2802734375,0.1162109375t0.1572265625,0.1708984375t-0.150390625,0.177734375q-0.0546875,0.1640625-0.232421875,0.1982421875t-0.314453125,0.0341796875q-0.08203125,0-0.259765625-0.068359375q-1.01171875,0.533203125-1.72265625,1.44921875t-1.162109375,2.0302734375t-0.65625,2.3515625t-0.205078125,2.4130859375q0,0.587890625-0.2666015625,0.7109375t-0.8544921875,0.123046875q-0.314453125,0-0.6630859375-0.068359375t-0.4853515625-0.4375q-0.24609375-0.779296875-0.4033203125-1.791015625t-0.2392578125-2.0849609375t-0.1162109375-2.1123046875t-0.0341796875-1.873046875z M357.56400390625,105.8515625q0-0.396484375,0.2255859375-0.51953125t0.5673828125-0.123046875q0.560546875,0,0.8544921875,0.2119140625t0.2939453125,0.7451171875q0,0.642578125,0.095703125,1.6064453125t0.2802734375,1.873046875t0.4375,1.5654296875t0.5263671875,0.65625q0.505859375,0,0.8955078125-0.779296875t0.68359375-1.9140625t0.505859375-2.4404296875t0.2939453125-2.3310546875q0.0546875-0.560546875,0.2666015625-0.8134765625t0.7724609375-0.2529296875q0.642578125,0,0.9365234375,0.533203125t0.3759765625,1.3125q0.068359375,0.669921875,0.068359375,1.39453125l0,0.232421875l0,0.546875q0,0.51953125,0.013671875,0.9296875l0.396484375,8.380859375l0.0546875,1.39453125q0.02734375,0.19140625,0.041015625,0.3623046875t0.013671875,0.3623046875q0,0.779296875-0.3349609375,1.0048828125t-1.0869140625,0.2255859375q-0.1640625,0-0.4169921875-0.02734375t-0.4921875-0.109375t-0.41015625-0.2255859375t-0.1708984375-0.3623046875l0.0546875-0.13671875q0.068359375-0.8203125,0.068359375-1.72265625l0-0.287109375q-0.013671875-1.06640625-0.068359375-2.16015625t-0.123046875-2.1875t-0.068359375-2.10546875q-0.19140625,0.423828125-0.4443359375,0.875t-0.587890625,0.8134765625t-0.7587890625,0.6015625t-0.95703125,0.2392578125q-0.779296875,0-1.28515625-0.41015625t-0.7861328125-1.06640625t-0.4033203125-1.4697265625t-0.1640625-1.626953125t-0.0546875-1.5517578125t-0.109375-1.244140625z"/><path fill="#" d=""/></svg>
